:SAMPLES-PER-SECOND 30
:FRAME-RANGE 1-2643
:FULLY-SPECIFIED
:DEGREES
496
root  86.8743 38.0371 18.6762 -178.235 -57.9421 -176.029
RightUpLeg  -8.88498 -11.082 1.25112
RightLeg  28.3467 -3.72102 -2.42495
RightFoot  -23.0987 0.453758 5.92518
RightToes  7.56698e-010 0 -3.6325e-017
Spine  15.9888 -0.550294 5.80331
Spine1  -3.47301 0.532501 0.400729
HEad  -15.4952 43.2221 -14.3109
LeftShoulder1  1.49488 -0.91337 -27.7376
LeftArm  -4.65024 -18.0478 -38.9198
LeftForeArm  17.8122 5.34567 -17.1349
LeftHand  0.370789 -0.531493 -7.25422
RightShoulder  6.50436 8.83195 46.1543
RightArm  12.2739 -5.18923 16.5852
RightForeArm  14.3186 -3.01988 17.7874
RightHand  0.25763 3.03646 3.32224
LeftUpLeg  -21.7835 11.8977 9.41068
LeftLeg  54.9171 4.4786 7.3047
LeftFoot  -0.243488 0.973171 -9.98488
LeftToes  1.48244e-010 1.61973e-010 3.308e-011
497
root  85.8022 38.3551 17.7567 -175.993 -56.0603 -178.085
RightUpLeg  -5.20897 -12.4234 -0.249227
RightLeg  24.1402 -4.91909 -2.12073
RightFoot  -22.0902 0.515297 7.06394
RightToes  7.56698e-010 0 -3.6325e-017
Spine  15.4953 0.203035 5.7329
Spine1  -3.90234 1.28543 -1.65351
HEad  -15.2698 42.0927 -14.2299
LeftShoulder1  1.43463 -0.641142 -28.5233
LeftArm  -4.83372 -13.8401 -36.8764
LeftForeArm  15.2805 5.74568 -17.3443
LeftHand  0.38654 -0.120658 -8.18386
RightShoulder  6.9598 9.66741 46.2513
RightArm  10.9231 -4.2196 17.3956
RightForeArm  14.5379 -1.6066 17.425
RightHand  0.279992 3.2668 3.51592
LeftUpLeg  -26.108 13.3701 5.36228
LeftLeg  49.6767 5.62259 7.485
LeftFoot  -1.51382 0.941594 -10.8236
LeftToes  1.48244e-010 1.61973e-010 3.308e-011
498
root  84.7085 38.5947 16.8625 -174.07 -53.9712 -179.77
RightUpLeg  -1.61772 -11.8589 -1.89109
RightLeg  20.0311 -7.58848 -1.53665
RightFoot  -20.8714 0.549165 8.27626
RightToes  7.56698e-010 0 -3.6325e-017
Spine  14.9371 1.08893 5.70714
Spine1  -3.94168 2.27029 -3.91097
HEad  -15.4962 40.6538 -14.5183
LeftShoulder1  1.37366 -0.428888 -28.8454
LeftArm  -3.53234 -9.96762 -34.6285
LeftForeArm  11.3715 5.32434 -17.7639
LeftHand  0.378386 0.263904 -8.67054
RightShoulder  7.43592 10.6271 46.0475
RightArm  11.9613 -3.46124 18.1695
RightForeArm  12.8337 1.54745 16.9547
RightHand  0.306675 3.46152 3.77358
LeftUpLeg  -29.3752 14.1339 1.52719
LeftLeg  41.4812 5.29871 5.37795
LeftFoot  -2.09057 0.882739 -10.7335
LeftToes  1.48244e-010 1.61973e-010 3.308e-011
499
root  83.5971 38.6966 15.9846 -172.626 -51.5786 178.683
RightUpLeg  1.88009 -10.6997 -3.53782
RightLeg  16.5787 -8.9986 -1.03097
RightFoot  -20.1348 0.595514 9.50574
RightToes  7.56698e-010 0 -3.6325e-017
Spine  14.7699 1.93428 5.31993
Spine1  -3.84357 3.29825 -6.02994
HEad  -15.5158 39.8053 -14.7876
LeftShoulder1  1.28851 -0.197269 -28.7251
LeftArm  -3.69199 -6.60272 -32.1865
LeftForeArm  8.44631 5.24367 -17.9448
LeftHand  0.367092 0.715162 -9.3028
RightShoulder  7.84024 11.3903 46.0582
RightArm  15.587 -2.26111 18.8041
RightForeArm  9.92526 5.74064 15.9823
RightHand  0.321881 3.65704 3.87256
LeftUpLeg  -30.8386 13.8646 -1.50366
LeftLeg  31.3148 2.00424 1.65956
LeftFoot  -3.09567 0.931089 -12.6205
LeftToes  1.48244e-010 1.61973e-010 3.308e-011
500
root  82.4009 38.5979 15.1058 -172.301 -48.9359 177.613
RightUpLeg  5.33978 -10.0848 -5.21615
RightLeg  14.8779 -8.15431 -1.13533
RightFoot  -20.2461 0.743923 11.2903
RightToes  7.56698e-010 0 -3.6325e-017
Spine  14.8686 2.59419 4.81403
Spine1  -3.48312 4.19501 -7.69995
HEad  -15.3002 39.8906 -14.7166
LeftShoulder1  1.16626 0.110271 -28.2633
LeftArm  -4.7459 -3.45137 -29.8134
LeftForeArm  7.19712 5.43743 -17.9075
LeftHand  0.345531 1.04097 -9.48273
RightShoulder  8.43993 12.5195 46.0792
RightArm  20.9908 -1.1991 19.3039
RightForeArm  5.98558 10.5293 14.0721
RightHand  0.319314 3.8242 3.75805
LeftUpLeg  -30.3982 11.4886 -2.81051
LeftLeg  22.0768 -0.48494 0.11091
LeftFoot  -3.48287 1.00104 -14.212
LeftToes  1.48244e-010 1.61973e-010 3.308e-011
501
root  81.0946 38.3326 14.1839 -173.226 -46.492 177.186
RightUpLeg  8.81874 -10.2908 -7.01998
RightLeg  15.3012 -6.51873 -1.64787
RightFoot  -20.8571 1.04878 14.242
RightToes  7.56698e-010 0 -3.6325e-017
Spine  14.3851 3.08362 3.96966
Spine1  -1.95925 4.9032 -8.36658
HEad  -14.6511 40.7794 -14.6294
LeftShoulder1  1.0563 0.371114 -27.5941
LeftArm  -5.8335 -0.76604 -27.9695
LeftForeArm  6.81377 5.67741 -17.7975
LeftHand  0.308777 1.42733 -9.40516
RightShoulder  8.97298 13.6613 45.7085
RightArm  27.4699 -0.21119 19.8528
RightForeArm  0.43037 15.5334 10.9581
RightHand  0.316081 3.96562 3.70692
LeftUpLeg  -29.5181 9.79473 -3.70834
LeftLeg  17.4634 -0.227796 0.242831
LeftFoot  2.14801 0.763438 -6.56201
LeftToes  1.48244e-010 1.61973e-010 3.308e-011
502
root  79.6831 37.8054 13.2334 -174.926 -44.3934 177.077
RightUpLeg  10.6778 -9.34411 -8.73789
RightLeg  20.7429 -6.13847 -2.77791
RightFoot  -21.9589 1.67134 19.43
RightToes  7.56698e-010 0 -3.6325e-017
Spine  14.8248 3.27857 2.82498
Spine1  -2.0279 4.97062 -8.04614
HEad  -12.6075 42.6091 -13.5131
LeftShoulder1  0.953497 0.613621 -26.8404
LeftArm  -6.8778 1.87001 -26.509
LeftForeArm  6.98183 5.93153 -17.6427
LeftHand  0.27168 1.71199 -9.01756
RightShoulder  9.29554 14.1627 46.0132
RightArm  34.1284 0.456002 19.8086
RightForeArm  -6.12457 20.5746 6.90428
RightHand  0.314891 3.91382 3.6604
LeftUpLeg  -29.533 6.88443 -2.98965
LeftLeg  25.5376 2.50677 1.64294
LeftFoot  1.01321 0.013319 -0.179725
LeftToes  1.48244e-010 1.61973e-010 3.308e-011
503
root  78.3793 37.2737 12.299 -176.236 -43.283 176.007
RightUpLeg  10.4742 -7.00326 -10.6507
RightLeg  30.5152 -6.11545 -4.11787
RightFoot  -20.6989 2.01231 25.9047
RightToes  7.56698e-010 0 -3.6325e-017
Spine  15.3357 3.42346 0.546171
Spine1  -1.74401 4.59587 -6.62673
HEad  -10.9121 44.0393 -12.9739
LeftShoulder1  0.92997 0.686764 -26.8616
LeftArm  -6.2122 1.76938 -25.6452
LeftForeArm  6.372 5.74854 -17.7785
LeftHand  0.217409 2.15823 -8.40935
RightShoulder  9.33624 13.9555 46.7873
RightArm  32.3124 1.62818 19.4044
RightForeArm  -5.53191 23.9591 5.40137
RightHand  0.316937 3.86326 3.70962
LeftUpLeg  -28.5353 5.89633 -3.31224
LeftLeg  33.6144 3.90187 3.14646
LeftFoot  -5.07412 0.108248 -1.42002
LeftToes  1.48244e-010 1.61973e-010 3.308e-011
504
root  77.184 37.298 11.3596 -176.518 -41.698 175.229
RightUpLeg  6.13574 -4.94438 -11.4547
RightLeg  42.2992 -7.54655 -7.5808
RightFoot  -12.1023 0.0689425 22.5999
RightToes  7.56698e-010 0 -3.6325e-017
Spine  14.6109 3.5547 -0.501028
Spine1  -0.734765 4.80184 -7.44034
HEad  -8.93404 45.2839 -12.3945
LeftShoulder1  0.956071 0.577904 -26.5155
LeftArm  -5.76285 -0.179858 -26.0045
LeftForeArm  6.79253 5.61319 -17.8337
LeftHand  0.211472 2.03608 -7.86096
RightShoulder  9.51675 13.8319 48.0573
RightArm  27.6345 2.29628 19.1633
RightForeArm  -2.26961 25.9373 5.68564
RightHand  0.254064 3.95007 2.88869
LeftUpLeg  -25.7576 9.18594 -4.15545
LeftLeg  35.338 2.75935 2.47061
LeftFoot  -8.77508 0.0733084 -0.919947
LeftToes  1.48244e-010 1.61973e-010 3.308e-011
505
root  76.051 37.4666 10.4496 -176.59 -41.1276 174.701
RightUpLeg  -0.140161 -5.02614 -11.5431
RightLeg  53.5572 -8.60456 -12.6633
RightFoot  0.893916 -0.749772 7.04329
RightToes  7.56698e-010 0 -3.6325e-017
Spine  14.4048 2.94291 -1.08756
Spine1  -1.14751 4.12307 -7.63088
HEad  -7.37569 47.077 -12.5737
LeftShoulder1  0.982236 0.529797 -26.8793
LeftArm  -6.42307 -2.8118 -26.3488
LeftForeArm  7.00265 5.78774 -17.7263
LeftHand  0.21796 1.87671 -7.68209
RightShoulder  9.61496 13.7833 48.6962
RightArm  25.0686 2.30636 20.0228
RightForeArm  0.196734 27.2482 5.86266
RightHand  0.182339 3.84794 2.02735
LeftUpLeg  -22.5388 11.1224 -4.51087
LeftLeg  35.1748 1.73805 1.68724
LeftFoot  -11.4645 0.0674895 -1.21027
LeftToes  1.48244e-010 1.61973e-010 3.308e-011
506
root  75.0677 37.6648 9.56921 -176.831 -41.6619 174.289
RightUpLeg  -4.41386 -6.1402 -11.631
RightLeg  59.7873 -5.7706 -11.0736
RightFoot  -0.330235 -0.818415 8.45243
RightToes  7.56698e-010 0 -3.6325e-017
Spine  14.7229 2.40908 -2.01174
Spine1  -1.37528 3.23481 -7.10468
HEad  -6.91433 47.882 -13.6442
LeftShoulder1  1.11045 0.219405 -27.69
LeftArm  -7.55565 -7.1775 -27.5145
LeftForeArm  8.28545 6.04744 -17.5091
LeftHand  0.211623 1.71052 -7.09326
RightShoulder  9.3093 13.2327 48.7041
RightArm  23.3364 1.44861 20.7911
RightForeArm  2.33118 29.3338 6.249
RightHand  0.176016 3.72874 1.98188
LeftUpLeg  -19.0535 10.9794 -4.52804
LeftLeg  34.196 1.39947 1.39448
LeftFoot  -13.3377 0.0470971 -1.88729
LeftToes  1.48244e-010 1.61973e-010 3.308e-011
